<svg xmlns="http://www.w3.org/2000/svg" xmlns:xlink="http://www.w3.org/1999/xlink" contentStyleType="text/css" data-diagram-type="DESCRIPTION" height="740px" preserveAspectRatio="none" style="width:1492px;height:740px;background:#FFF2CC;" version="1.1" viewBox="0 0 1492 740" width="1492px" zoomAndPan="magnify"><?plantuml 1.2026.6?><defs/><g><rect fill="#FFF2CC" height="740" style="stroke:none;stroke-width:1;" width="1492" x="0" y="0"/><g class="title" data-source-line="2"><text fill="#000000" font-family="Arial" font-size="14" font-weight="700" lengthAdjust="spacing" textLength="133.8066" x="675.5967" y="23.1318">Layered Application</text></g><!--cluster App--><g class="cluster" data-qualified-name="App" data-source-line="20" id="ent0002"><rect fill="#FFF2CC" height="519" rx="2.5" ry="2.5" style="stroke:#111827;stroke-width:1;" width="1369" x="107" y="49.0986"/><text fill="#000000" font-family="Arial" font-size="14" font-weight="700" lengthAdjust="spacing" textLength="133.8066" x="724.5967" y="64.2305">Layered Application</text></g><!--cluster Presentation--><g class="cluster" data-qualified-name="App.Presentation" data-source-line="21" id="ent0003"><rect fill="#D9EAD3" height="238" rx="2.5" ry="2.5" style="stroke:#111827;stroke-width:1;" width="180" x="118.5" y="76.0986"/><text fill="#000000" font-family="Arial" font-size="14" font-weight="700" lengthAdjust="spacing" textLength="126.0479" x="145.4761" y="91.2305">Presentation Layer</text></g><!--cluster Services--><g class="cluster" data-qualified-name="App.Services" data-source-line="26" id="ent0006"><rect fill="#F4CCCC" height="238" rx="2.5" ry="2.5" style="stroke:#111827;stroke-width:1;" width="187" x="115" y="322.0986"/><text fill="#000000" font-family="Arial" font-size="14" font-weight="700" lengthAdjust="spacing" textLength="98.8545" x="159.0728" y="337.2305">Services Layer</text></g><!--cluster Business--><g class="cluster" data-qualified-name="App.Business" data-source-line="31" id="ent0009"><rect fill="#F9CB9C" height="416" rx="2.5" ry="2.5" style="stroke:#111827;stroke-width:1;" width="206" x="322" y="76.0986"/><text fill="#000000" font-family="Arial" font-size="14" font-weight="700" lengthAdjust="spacing" textLength="103.4961" x="373.252" y="91.2305">Business Layer</text></g><!--cluster Data--><g class="cluster" data-qualified-name="App.Data" data-source-line="38" id="ent0014"><rect fill="#C9DAF8" height="238" rx="2.5" ry="2.5" style="stroke:#111827;stroke-width:1;" width="175" x="548" y="322.0986"/><text fill="#000000" font-family="Arial" font-size="14" font-weight="700" lengthAdjust="spacing" textLength="71.5928" x="599.7036" y="337.2305">Data Layer</text></g><!--cluster CrossCutting--><g class="cluster" data-qualified-name="App.CrossCutting" data-source-line="43" id="ent0017"><rect fill="#9FC5E8" height="149" rx="2.5" ry="2.5" style="stroke:#111827;stroke-width:1;" width="683" x="785" y="184.0986"/><text fill="#000000" font-family="Arial" font-size="14" font-weight="700" lengthAdjust="spacing" textLength="92.5518" x="1080.2241" y="199.2305">Cross Cutting</text></g><!--entity Users--><g class="entity" data-qualified-name="Users" data-source-line="18" id="ent0001"><path d="M8.5,274.5986 L60.417,274.5986 A3.75,3.75 0 0 1 62.917,277.0986 L69.917,296.6973 L84.417,296.6973 A2.5,2.5 0 0 1 86.917,299.1973 L86.917,311.1973 A2.5,2.5 0 0 1 84.417,313.6973 L8.5,313.6973 A2.5,2.5 0 0 1 6,311.1973 L6,277.0986 A2.5,2.5 0 0 1 8.5,274.5986" fill="#D9D2E9" style="stroke:#111827;stroke-width:0.5;"/><line style="stroke:#111827;stroke-width:0.5;" x1="6" x2="69.917" y1="296.6973" y2="296.6973"/><text fill="#111827" font-family="Arial" font-size="14" font-weight="700" lengthAdjust="spacing" textLength="38.917" x="16" y="290.7305">Users</text></g><!--entity ExternalSystems--><g class="entity" data-qualified-name="ExternalSystems" data-source-line="50" id="ent0021"><path d="M350,576.5986 L475.8408,576.5986 A3.75,3.75 0 0 1 478.3408,579.0986 L485.3408,598.6973 L499.8408,598.6973 A2.5,2.5 0 0 1 502.3408,601.1973 L502.3408,629.2959 A2.5,2.5 0 0 1 499.8408,631.7959 L350,631.7959 A2.5,2.5 0 0 1 347.5,629.2959 L347.5,579.0986 A2.5,2.5 0 0 1 350,576.5986" fill="#D9D2E9" style="stroke:#111827;stroke-width:0.5;"/><line style="stroke:#111827;stroke-width:0.5;" x1="347.5" x2="485.3408" y1="598.6973" y2="598.6973"/><text fill="#111827" font-family="Arial" font-size="14" font-weight="700" lengthAdjust="spacing" textLength="112.8408" x="357.5" y="592.7305">ExternalSystems</text><text fill="#111827" font-family="Arial" font-size="14" lengthAdjust="spacing" textLength="108.9238" x="357.5" y="618.8291">External Systems</text></g><!--entity DataSources--><g class="entity" data-qualified-name="DataSources" data-source-line="51" id="ent0022"><path d="M753.5,576.5986 L852.0928,576.5986 A3.75,3.75 0 0 1 854.5928,579.0986 L861.5928,598.6973 L969.1338,598.6973 A2.5,2.5 0 0 1 971.6338,601.1973 L971.6338,645.3945 A2.5,2.5 0 0 1 969.1338,647.8945 L753.5,647.8945 A2.5,2.5 0 0 1 751,645.3945 L751,579.0986 A2.5,2.5 0 0 1 753.5,576.5986" fill="#B6D7A8" style="stroke:#111827;stroke-width:0.5;"/><line style="stroke:#111827;stroke-width:0.5;" x1="751" x2="861.5928" y1="598.6973" y2="598.6973"/><text fill="#111827" font-family="Arial" font-size="14" font-weight="700" lengthAdjust="spacing" textLength="85.5928" x="761" y="592.7305">DataSources</text><text fill="#111827" font-family="Arial" font-size="14" lengthAdjust="spacing" textLength="84.8203" x="813.9067" y="618.8291">Data Sources</text><text fill="#111827" font-family="Arial" font-size="14" lengthAdjust="spacing" textLength="190.6338" x="761" y="634.9277">PostgreSQL, RabbitMQ, Redis</text></g><!--entity ExternalServices--><g class="entity" data-qualified-name="ExternalServices" data-source-line="52" id="ent0023"><path d="M780,665.5986 L905.8545,665.5986 A3.75,3.75 0 0 1 908.3545,668.0986 L915.3545,687.6973 L942.71,687.6973 A2.5,2.5 0 0 1 945.21,690.1973 L945.21,734.3945 A2.5,2.5 0 0 1 942.71,736.8945 L780,736.8945 A2.5,2.5 0 0 1 777.5,734.3945 L777.5,668.0986 A2.5,2.5 0 0 1 780,665.5986" fill="#B6D7A8" style="stroke:#111827;stroke-width:0.5;"/><line style="stroke:#111827;stroke-width:0.5;" x1="777.5" x2="915.3545" y1="687.6973" y2="687.6973"/><text fill="#111827" font-family="Arial" font-size="14" font-weight="700" lengthAdjust="spacing" textLength="112.8545" x="787.5" y="681.7305">ExternalServices</text><text fill="#111827" font-family="Arial" font-size="14" lengthAdjust="spacing" textLength="108.9307" x="801.8896" y="707.8291">External Services</text><text fill="#111827" font-family="Arial" font-size="14" lengthAdjust="spacing" textLength="137.71" x="787.5" y="723.9277">Eureka, MinIO, Mailpit</text></g><!--entity UserInterface--><g class="entity" data-qualified-name="App.Presentation.UserInterface" data-source-line="22" id="ent0004"><path d="M145.5,192.5986 L247.9893,192.5986 A3.75,3.75 0 0 1 250.4893,195.0986 L257.4893,214.6973 L271.9893,214.6973 A2.5,2.5 0 0 1 274.4893,217.1973 L274.4893,261.3945 A2.5,2.5 0 0 1 271.9893,263.8945 L145.5,263.8945 A2.5,2.5 0 0 1 143,261.3945 L143,195.0986 A2.5,2.5 0 0 1 145.5,192.5986" fill="#B6D7A8" style="stroke:#111827;stroke-width:0.5;"/><line style="stroke:#111827;stroke-width:0.5;" x1="143" x2="257.4893" y1="214.6973" y2="214.6973"/><text fill="#111827" font-family="Arial" font-size="14" font-weight="700" lengthAdjust="spacing" textLength="89.4893" x="153" y="208.7305">UserInterface</text><text fill="#111827" font-family="Arial" font-size="14" lengthAdjust="spacing" textLength="87.9238" x="153" y="234.8291">User Interface</text><text fill="#111827" font-family="Arial" font-size="14" lengthAdjust="spacing" textLength="59.9307" x="166.9966" y="250.9277">apps/web</text></g><!--entity PresentationLogic--><g class="entity" data-qualified-name="App.Presentation.PresentationLogic" data-source-line="23" id="ent0005"><path d="M129,103.5986 L264.1309,103.5986 A3.75,3.75 0 0 1 266.6309,106.0986 L273.6309,125.6973 L288.1309,125.6973 A2.5,2.5 0 0 1 290.6309,128.1973 L290.6309,172.3945 A2.5,2.5 0 0 1 288.1309,174.8945 L129,174.8945 A2.5,2.5 0 0 1 126.5,172.3945 L126.5,106.0986 A2.5,2.5 0 0 1 129,103.5986" fill="#B6D7A8" style="stroke:#111827;stroke-width:0.5;"/><line style="stroke:#111827;stroke-width:0.5;" x1="126.5" x2="273.6309" y1="125.6973" y2="125.6973"/><text fill="#111827" font-family="Arial" font-size="14" font-weight="700" lengthAdjust="spacing" textLength="122.1309" x="136.5" y="119.7305">PresentationLogic</text><text fill="#111827" font-family="Arial" font-size="14" lengthAdjust="spacing" textLength="115.9648" x="136.5" y="145.8291">Presentation Logic</text><text fill="#111827" font-family="Arial" font-size="14" lengthAdjust="spacing" textLength="97.2754" x="145.8447" y="161.9277">routes, features</text></g><!--entity ServiceInterface--><g class="entity" data-qualified-name="App.Services.ServiceInterface" data-source-line="27" id="ent0007"><path d="M125.5,438.5986 L246.6787,438.5986 A3.75,3.75 0 0 1 249.1787,441.0986 L256.1787,460.6973 L291.3477,460.6973 A2.5,2.5 0 0 1 293.8477,463.1973 L293.8477,507.3945 A2.5,2.5 0 0 1 291.3477,509.8945 L125.5,509.8945 A2.5,2.5 0 0 1 123,507.3945 L123,441.0986 A2.5,2.5 0 0 1 125.5,438.5986" fill="#B6D7A8" style="stroke:#111827;stroke-width:0.5;"/><line style="stroke:#111827;stroke-width:0.5;" x1="123" x2="256.1787" y1="460.6973" y2="460.6973"/><text fill="#111827" font-family="Arial" font-size="14" font-weight="700" lengthAdjust="spacing" textLength="108.1787" x="133" y="454.7305">ServiceInterface</text><text fill="#111827" font-family="Arial" font-size="14" lengthAdjust="spacing" textLength="105.0479" x="150.8999" y="480.8291">Service Interface</text><text fill="#111827" font-family="Arial" font-size="14" lengthAdjust="spacing" textLength="140.8477" x="133" y="496.9277">api-gateway, controller</text></g><!--entity ServiceLogic--><g class="entity" data-qualified-name="App.Services.ServiceLogic" data-source-line="28" id="ent0008"><path d="M138,349.5986 L238.1514,349.5986 A3.75,3.75 0 0 1 240.6514,352.0986 L247.6514,371.6973 L278.9648,371.6973 A2.5,2.5 0 0 1 281.4648,374.1973 L281.4648,418.3945 A2.5,2.5 0 0 1 278.9648,420.8945 L138,420.8945 A2.5,2.5 0 0 1 135.5,418.3945 L135.5,352.0986 A2.5,2.5 0 0 1 138,349.5986" fill="#B6D7A8" style="stroke:#111827;stroke-width:0.5;"/><line style="stroke:#111827;stroke-width:0.5;" x1="135.5" x2="247.6514" y1="371.6973" y2="371.6973"/><text fill="#111827" font-family="Arial" font-size="14" font-weight="700" lengthAdjust="spacing" textLength="87.1514" x="145.5" y="365.7305">ServiceLogic</text><text fill="#111827" font-family="Arial" font-size="14" lengthAdjust="spacing" textLength="115.9648" x="145.5" y="391.8291">Presentation Logic</text><text fill="#111827" font-family="Arial" font-size="14" lengthAdjust="spacing" textLength="94.165" x="156.3999" y="407.9277">dto/req, dto/res</text></g><!--entity ApplicationFacade--><g class="entity" data-qualified-name="App.Business.ApplicationFacade" data-source-line="32" id="ent0010"><path d="M344.5,103.5986 L481.9688,103.5986 A3.75,3.75 0 0 1 484.4688,106.0986 L491.4688,125.6973 L505.9688,125.6973 A2.5,2.5 0 0 1 508.4688,128.1973 L508.4688,172.3945 A2.5,2.5 0 0 1 505.9688,174.8945 L344.5,174.8945 A2.5,2.5 0 0 1 342,172.3945 L342,106.0986 A2.5,2.5 0 0 1 344.5,103.5986" fill="#B6D7A8" style="stroke:#111827;stroke-width:0.5;"/><line style="stroke:#111827;stroke-width:0.5;" x1="342" x2="491.4688" y1="125.6973" y2="125.6973"/><text fill="#111827" font-family="Arial" font-size="14" font-weight="700" lengthAdjust="spacing" textLength="124.4688" x="352" y="119.7305">ApplicationFacade</text><text fill="#111827" font-family="Arial" font-size="14" lengthAdjust="spacing" textLength="119.0752" x="352" y="145.8291">Application Facade</text><text fill="#111827" font-family="Arial" font-size="14" lengthAdjust="spacing" textLength="108.9307" x="357.0723" y="161.9277">service interfaces</text></g><!--entity BusinessWorkflow--><g class="entity" data-qualified-name="App.Business.BusinessWorkflow" data-source-line="33" id="ent0011"><path d="M341.5,370.5986 L479.7412,370.5986 A3.75,3.75 0 0 1 482.2412,373.0986 L489.2412,392.6973 L508.1201,392.6973 A2.5,2.5 0 0 1 510.6201,395.1973 L510.6201,439.3945 A2.5,2.5 0 0 1 508.1201,441.8945 L341.5,441.8945 A2.5,2.5 0 0 1 339,439.3945 L339,373.0986 A2.5,2.5 0 0 1 341.5,370.5986" fill="#B6D7A8" style="stroke:#111827;stroke-width:0.5;"/><line style="stroke:#111827;stroke-width:0.5;" x1="339" x2="489.2412" y1="392.6973" y2="392.6973"/><text fill="#111827" font-family="Arial" font-size="14" font-weight="700" lengthAdjust="spacing" textLength="125.2412" x="349" y="386.7305">BusinessWorkflow</text><text fill="#111827" font-family="Arial" font-size="14" lengthAdjust="spacing" textLength="118.2549" x="360.6826" y="412.8291">Business Workflow</text><text fill="#111827" font-family="Arial" font-size="14" lengthAdjust="spacing" textLength="141.6201" x="349" y="428.9277">events, saga, workflow</text></g><!--entity BusinessComponents--><g class="entity" data-qualified-name="App.Business.BusinessComponents" data-source-line="34" id="ent0012"><path d="M332.5,281.5986 L493.2998,281.5986 A3.75,3.75 0 0 1 495.7998,284.0986 L502.7998,303.6973 L517.2998,303.6973 A2.5,2.5 0 0 1 519.7998,306.1973 L519.7998,350.3945 A2.5,2.5 0 0 1 517.2998,352.8945 L332.5,352.8945 A2.5,2.5 0 0 1 330,350.3945 L330,284.0986 A2.5,2.5 0 0 1 332.5,281.5986" fill="#B6D7A8" style="stroke:#111827;stroke-width:0.5;"/><line style="stroke:#111827;stroke-width:0.5;" x1="330" x2="502.7998" y1="303.6973" y2="303.6973"/><text fill="#111827" font-family="Arial" font-size="14" font-weight="700" lengthAdjust="spacing" textLength="147.7998" x="340" y="297.7305">BusinessComponents</text><text fill="#111827" font-family="Arial" font-size="14" lengthAdjust="spacing" textLength="140.0752" x="340" y="323.8291">Business Components</text><text fill="#111827" font-family="Arial" font-size="14" lengthAdjust="spacing" textLength="73.9033" x="373.0859" y="339.9277">service/impl</text></g><!--entity BusinessEntities--><g class="entity" data-qualified-name="App.Business.BusinessEntities" data-source-line="35" id="ent0013"><path d="M350,192.5986 L475.8135,192.5986 A3.75,3.75 0 0 1 478.3135,195.0986 L485.3135,214.6973 L499.8135,214.6973 A2.5,2.5 0 0 1 502.3135,217.1973 L502.3135,261.3945 A2.5,2.5 0 0 1 499.8135,263.8945 L350,263.8945 A2.5,2.5 0 0 1 347.5,261.3945 L347.5,195.0986 A2.5,2.5 0 0 1 350,192.5986" fill="#B6D7A8" style="stroke:#111827;stroke-width:0.5;"/><line style="stroke:#111827;stroke-width:0.5;" x1="347.5" x2="485.3135" y1="214.6973" y2="214.6973"/><text fill="#111827" font-family="Arial" font-size="14" font-weight="700" lengthAdjust="spacing" textLength="112.8135" x="357.5" y="208.7305">BusinessEntities</text><text fill="#111827" font-family="Arial" font-size="14" lengthAdjust="spacing" textLength="106.6064" x="357.5" y="234.8291">Business Entities</text><text fill="#111827" font-family="Arial" font-size="14" lengthAdjust="spacing" textLength="105.8408" x="357.8828" y="250.9277">model, exception</text></g><!--entity DataAccess--><g class="entity" data-qualified-name="App.Data.DataAccess" data-source-line="39" id="ent0015"><path d="M558.5,438.5986 L650.8857,438.5986 A3.75,3.75 0 0 1 653.3857,441.0986 L660.3857,460.6973 L712.6855,460.6973 A2.5,2.5 0 0 1 715.1855,463.1973 L715.1855,507.3945 A2.5,2.5 0 0 1 712.6855,509.8945 L558.5,509.8945 A2.5,2.5 0 0 1 556,507.3945 L556,441.0986 A2.5,2.5 0 0 1 558.5,438.5986" fill="#B6D7A8" style="stroke:#111827;stroke-width:0.5;"/><line style="stroke:#111827;stroke-width:0.5;" x1="556" x2="660.3857" y1="460.6973" y2="460.6973"/><text fill="#111827" font-family="Arial" font-size="14" font-weight="700" lengthAdjust="spacing" textLength="79.3857" x="566" y="454.7305">DataAccess</text><text fill="#111827" font-family="Arial" font-size="14" lengthAdjust="spacing" textLength="78.5859" x="591.2998" y="480.8291">Data Access</text><text fill="#111827" font-family="Arial" font-size="14" lengthAdjust="spacing" textLength="129.1855" x="566" y="496.9277">repository, Liquibase</text></g><!--entity ServiceAgents--><g class="entity" data-qualified-name="App.Data.ServiceAgents" data-source-line="40" id="ent0016"><path d="M568.5,349.5986 L678.7686,349.5986 A3.75,3.75 0 0 1 681.2686,352.0986 L688.2686,371.6973 L702.7686,371.6973 A2.5,2.5 0 0 1 705.2686,374.1973 L705.2686,418.3945 A2.5,2.5 0 0 1 702.7686,420.8945 L568.5,420.8945 A2.5,2.5 0 0 1 566,418.3945 L566,352.0986 A2.5,2.5 0 0 1 568.5,349.5986" fill="#B6D7A8" style="stroke:#111827;stroke-width:0.5;"/><line style="stroke:#111827;stroke-width:0.5;" x1="566" x2="688.2686" y1="371.6973" y2="371.6973"/><text fill="#111827" font-family="Arial" font-size="14" font-weight="700" lengthAdjust="spacing" textLength="97.2686" x="576" y="365.7305">ServiceAgents</text><text fill="#111827" font-family="Arial" font-size="14" lengthAdjust="spacing" textLength="94.1582" x="579.8862" y="391.8291">Service Agents</text><text fill="#111827" font-family="Arial" font-size="14" lengthAdjust="spacing" textLength="101.9307" x="576" y="407.9277">client, consumer</text></g><!--entity Security--><g class="entity" data-qualified-name="App.CrossCutting.Security" data-source-line="44" id="ent0018"><path d="M795.5,211.5986 L863.748,211.5986 A3.75,3.75 0 0 1 866.248,214.0986 L873.248,233.6973 L927.0791,233.6973 A2.5,2.5 0 0 1 929.5791,236.1973 L929.5791,280.3945 A2.5,2.5 0 0 1 927.0791,282.8945 L795.5,282.8945 A2.5,2.5 0 0 1 793,280.3945 L793,214.0986 A2.5,2.5 0 0 1 795.5,211.5986" fill="#B6D7A8" style="stroke:#111827;stroke-width:0.5;"/><line style="stroke:#111827;stroke-width:0.5;" x1="793" x2="873.248" y1="233.6973" y2="233.6973"/><text fill="#111827" font-family="Arial" font-size="14" font-weight="700" lengthAdjust="spacing" textLength="55.248" x="803" y="227.7305">Security</text><text fill="#111827" font-family="Arial" font-size="14" lengthAdjust="spacing" textLength="50.5723" x="831.0034" y="253.8291">Security</text><text fill="#111827" font-family="Arial" font-size="14" lengthAdjust="spacing" textLength="106.5791" x="803" y="269.9277">common-security</text></g><!--entity OperationalManagement--><g class="entity" data-qualified-name="App.CrossCutting.OperationalManagement" data-source-line="45" id="ent0019"><path d="M1010.5,211.5986 L1186.8652,211.5986 A3.75,3.75 0 0 1 1189.3652,214.0986 L1196.3652,233.6973 L1210.8652,233.6973 A2.5,2.5 0 0 1 1213.3652,236.1973 L1213.3652,280.3945 A2.5,2.5 0 0 1 1210.8652,282.8945 L1010.5,282.8945 A2.5,2.5 0 0 1 1008,280.3945 L1008,214.0986 A2.5,2.5 0 0 1 1010.5,211.5986" fill="#B6D7A8" style="stroke:#111827;stroke-width:0.5;"/><line style="stroke:#111827;stroke-width:0.5;" x1="1008" x2="1196.3652" y1="233.6973" y2="233.6973"/><text fill="#111827" font-family="Arial" font-size="14" font-weight="700" lengthAdjust="spacing" textLength="163.3652" x="1018" y="227.7305">OperationalManagement</text><text fill="#111827" font-family="Arial" font-size="14" lengthAdjust="spacing" textLength="157.9854" x="1018" y="253.8291">Operational Management</text><text fill="#111827" font-family="Arial" font-size="14" lengthAdjust="spacing" textLength="140.8545" x="1026.5654" y="269.9277">config-repo, build-logic</text></g><!--entity Communication--><g class="entity" data-qualified-name="App.CrossCutting.Communication" data-source-line="46" id="ent0020"><path d="M1251.5,211.5986 L1370.2793,211.5986 A3.75,3.75 0 0 1 1372.7793,214.0986 L1379.7793,233.6973 L1457.0166,233.6973 A2.5,2.5 0 0 1 1459.5166,236.1973 L1459.5166,280.3945 A2.5,2.5 0 0 1 1457.0166,282.8945 L1251.5,282.8945 A2.5,2.5 0 0 1 1249,280.3945 L1249,214.0986 A2.5,2.5 0 0 1 1251.5,211.5986" fill="#B6D7A8" style="stroke:#111827;stroke-width:0.5;"/><line style="stroke:#111827;stroke-width:0.5;" x1="1249" x2="1379.7793" y1="233.6973" y2="233.6973"/><text fill="#111827" font-family="Arial" font-size="14" font-weight="700" lengthAdjust="spacing" textLength="105.7793" x="1259" y="227.7305">Communication</text><text fill="#111827" font-family="Arial" font-size="14" lengthAdjust="spacing" textLength="97.2617" x="1300.6274" y="253.8291">Communication</text><text fill="#111827" font-family="Arial" font-size="14" lengthAdjust="spacing" textLength="180.5166" x="1259" y="269.9277">common-web, clients, events</text></g><g class="link" data-entity-1="ent0001" data-entity-2="ent0003" data-link-type="dependency" id="lnk24"><polygon fill="#4B5563" points="118.2751,300.8086,109.3103,296.7303,113.2753,300.765,109.2406,304.73,118.2751,300.8086" style="stroke:#4B5563;stroke-width:1;stroke-linejoin:miter;stroke-miterlimit:10;"/><path d="M87.0506,300.0144 C96.6748,300.4487 102.359,300.6698 113.2753,300.765" fill="none" style="stroke:#4B5563;stroke-width:1;stroke-dasharray:7,7;"/></g><g class="link" data-entity-1="ent0003" data-entity-2="ent0009" data-link-type="dependency" id="lnk25"><polygon fill="#4B5563" points="321.5228,459.5901,318.328,450.2738,318.1198,455.9268,312.4668,455.7187,321.5228,459.5901" style="stroke:#4B5563;stroke-width:1;stroke-linejoin:miter;stroke-miterlimit:10;"/><path d="M285.1191,314.2348 C285.3531,314.3592 285.5864,314.4847 285.819,314.6115 C286.284,314.8649 286.7461,315.123 287.2049,315.3859 C289.0402,316.4375 290.8241,317.5654 292.5441,318.7767 C295.9841,321.1992 299.169,323.9548 302,327.0986 C322.0002,349.3085 316.7212,371.7112 311.5817,393.9851 C309.0119,405.122 306.477,416.2268 307.1543,427.2591 C307.4929,432.7753 308.6346,438.2733 310.9765,443.7483 C312.1474,446.4857 313.6185,449.2174 315.4392,451.9427 C316.3495,453.3053 317.3473,454.6663 318.4387,456.0257 C318.9844,456.7054 319.5535,457.3846 320.1468,458.0635 C320.4434,458.4029 320.7461,458.7422 321.055,459.0814 C321.2094,459.251 317.9623,455.7573 318.1198,455.9268" fill="none" style="stroke:#4B5563;stroke-width:1;stroke-dasharray:7,7;"/></g><g class="link" data-entity-1="ent0006" data-entity-2="ent0009" data-link-type="dependency" id="lnk26"><polygon fill="#4B5563" points="357.2222,492.2099,347.4396,491.0699,352.4488,493.6981,349.8206,498.7073,357.2222,492.2099" style="stroke:#4B5563;stroke-width:1;stroke-linejoin:miter;stroke-miterlimit:10;"/><path d="M302,528.0986 C313.2075,521.7334 310.8773,513.6109 322,507.0986 C330.0034,502.4127 338.8423,498.5628 347.8707,495.3316 C350.1278,494.5238 352.3967,493.7547 354.6674,493.0208 C355.2351,492.8373 355.8029,492.6561 356.3707,492.4769 C356.6545,492.3874 352.165,493.7865 352.4488,493.6981" fill="none" style="stroke:#4B5563;stroke-width:1;stroke-dasharray:7,7;"/></g><g class="link" data-entity-1="ent0009" data-entity-2="ent0014" data-link-type="dependency" id="lnk27"><polygon fill="#4B5563" points="547.7384,528.0168,540.3446,521.5106,542.9668,526.523,537.9544,529.1452,547.7384,528.0168" style="stroke:#4B5563;stroke-width:1;stroke-linejoin:miter;stroke-miterlimit:10;"/><path d="M456.0688,492.2246 C456.2024,492.2894 456.3364,492.3542 456.4708,492.4191 C456.7394,492.5489 457.0094,492.6789 457.2807,492.8092 C457.8232,493.0698 458.3709,493.3313 458.9237,493.5939 C461.1347,494.6439 463.4263,495.709 465.7887,496.7848 C470.5134,498.9365 475.5209,501.1314 480.7324,503.3358 C491.1552,507.7445 502.3936,512.1916 513.8155,516.4083 C519.5264,518.5166 525.2833,520.5674 531.007,522.527 C533.8689,523.5068 536.7225,524.4638 539.558,525.3938 C540.9757,525.8588 542.3889,526.317 543.7963,526.768 C544.5,526.9935 545.2023,527.2172 545.9029,527.439 C546.2533,527.5499 546.6032,527.6603 546.9527,527.7702 C547.1275,527.8252 547.3021,527.8801 547.4767,527.9348 C547.564,527.9622 542.8796,526.4957 542.9668,526.523" fill="none" style="stroke:#4B5563;stroke-width:1;"/></g><g class="link" data-entity-1="ent0014" data-entity-2="ent0022" data-link-type="dependency" id="lnk28"><polygon fill="#4B5563" points="750.8019,583.5872,743.4511,577.0324,746.0402,582.062,741.0106,584.6511,750.8019,583.5872" style="stroke:#4B5563;stroke-width:1;stroke-linejoin:miter;stroke-miterlimit:10;"/><path d="M681.517,560.1041 C681.6596,560.1558 681.8024,560.2077 681.9455,560.2595 C682.5178,560.467 683.0937,560.6753 683.6731,560.8844 C684.832,561.3026 686.005,561.7239 687.1913,562.1481 C706.1717,568.9354 723.7857,574.9332 746.0402,582.062" fill="none" style="stroke:#4B5563;stroke-width:1;stroke-dasharray:7,7;"/></g><g class="link" data-entity-1="ent0014" data-entity-2="ent0023" data-link-type="dependency" id="lnk29"><polygon fill="#4B5563" points="777.2981,671.981,770.9541,664.4475,772.8017,669.7941,767.4551,671.6418,777.2981,671.981" style="stroke:#4B5563;stroke-width:1;stroke-linejoin:miter;stroke-miterlimit:10;"/><path d="M651.7296,560.1748 C651.8212,560.2903 651.9132,560.4061 652.0055,560.5223 C652.3748,560.9871 652.75,561.4579 653.1308,561.9345 C653.8925,562.8877 654.6771,563.8641 655.4838,564.8621 C657.0972,566.8579 658.7992,568.9399 660.5843,571.0947 C667.7245,579.7138 676.1927,589.4977 685.6297,599.5938 C704.5035,619.7862 727.2521,641.2277 751,657.0986 C759.1763,662.5629 763.6397,665.3381 772.8017,669.7941" fill="none" style="stroke:#4B5563;stroke-width:1;stroke-dasharray:7,7;"/></g><g class="link" data-entity-1="ent0006" data-entity-2="ent0021" data-link-type="dependency" id="lnk30"><polygon fill="#4B5563" points="347.3934,587.7406,339.8143,581.4511,342.5805,586.3855,337.6462,589.1517,347.3934,587.7406" style="stroke:#4B5563;stroke-width:1;stroke-linejoin:miter;stroke-miterlimit:10;"/><path d="M257.803,560.2575 C259.1928,560.725 260.6018,561.1961 262.0284,561.6704 C264.8816,562.619 267.8054,563.5803 270.7876,564.5507 C294.6458,572.314 317.4335,579.3051 342.5805,586.3855" fill="none" style="stroke:#4B5563;stroke-width:1;stroke-dasharray:7,7;"/></g><g class="link" data-entity-1="ent0006" data-entity-2="ent0017" data-link-type="dependency" id="lnk31"><polygon fill="#4B5563" points="783.8846,311.8198,774.9356,307.7069,778.885,311.7569,774.835,315.7063,783.8846,311.8198" style="stroke:#4B5563;stroke-width:1;stroke-linejoin:miter;stroke-miterlimit:10;"/><path d="M302.4677,554.9211 C302.9029,554.9557 303.3389,554.9899 303.7758,555.0237 C305.5236,555.1588 307.2856,555.287 309.061,555.4077 C323.2639,556.3733 338.3222,556.8585 353.7697,556.5612 C415.5597,555.372 483.578,541.663 528,496.0986 C555.7865,467.5976 518.5374,344.8633 548,318.0986 C553.8361,312.7969 618.812,311.2792 688.0131,311.2021 C705.3134,311.1828 722.8778,311.2536 739.8483,311.3778 C748.3335,311.4399 756.6702,311.5153 764.7512,311.5995 C768.7917,311.6416 772.7682,311.6859 776.6675,311.7319 C778.6171,311.7548 780.5473,311.7782 782.4566,311.8019 C782.9339,311.8078 778.4103,311.7509 778.885,311.7569" fill="none" style="stroke:#4B5563;stroke-width:1;stroke-dasharray:7,7;"/></g><g class="link" data-entity-1="ent0009" data-entity-2="ent0017" data-link-type="dependency" id="lnk32"><polygon fill="#4B5563" points="784.4309,307.2707,775.9178,302.3181,779.4604,306.7284,775.0501,310.2709,784.4309,307.2707" style="stroke:#4B5563;stroke-width:1;stroke-linejoin:miter;stroke-miterlimit:10;"/><path d="M528,460.0986 C571.9009,413.2901 499.5812,359.2168 548,317.0986 C571.6423,296.5329 637.5623,295.5423 702.7986,299.8231 C719.1077,300.8933 735.374,302.2929 750.9263,303.7985 C758.7024,304.5513 766.3001,305.3306 773.6353,306.1085 C777.3029,306.4974 775.9345,306.3437 779.4604,306.7284" fill="none" style="stroke:#4B5563;stroke-width:1;stroke-dasharray:7,7;"/></g><g class="link" data-entity-1="ent0014" data-entity-2="ent0017" data-link-type="dependency" id="lnk33"><polygon fill="#4B5563" points="854.7666,333.129,848.0319,340.3153,853.124,337.8514,855.5878,342.9435,854.7666,333.129" style="stroke:#4B5563;stroke-width:1;stroke-linejoin:miter;stroke-miterlimit:10;"/><path d="M723,528.0986 C761.4105,501.2413 792.0394,459.909 814.5498,420.6023 C825.805,400.949 835.0306,381.802 842.1844,365.2241 C845.7613,356.9351 848.8202,349.2884 851.356,342.5417 C852.6239,339.1684 852.1183,340.7425 853.124,337.8514" fill="none" style="stroke:#4B5563;stroke-width:1;stroke-dasharray:7,7;"/></g><?plantuml-src dLRVRzCm47xtNs7MruPfOuFrPLAQDXBI1eE2U60ykCari-hOmNReAiJ_ZkCahjsaG-AbJUw--_7TdSzvLKbIb0GpiXUrnge4JJX1cce6-8xiGKAEuwfYD2EQ2euGWut6Mc19YoUDSoeXQnLgItb592cnUYAvs55Uu0rX2ZnDHR8jAM2bzyPzOqbumNn03XjICvqAhZ-G4d0iAM53_HTurZ6Z1I-1QvoP7v0UYb4EUby15b8_2KyHIobsYM12uidL_FhwxHjF-T0cDnSo1zc1BYukRYxV3K5DWgSWSmCffAXvtY7IDBrC4W_1HGuAAdnrxGabuTjEYBewuREl2gGwmqHX-uGdYzdYSZdp42DDidZptaV6ln76pk11cjXSMsJROeiFn2RCCbwyiOQUQPC3VjyKUqCoUEIagjJv3jOkGQV3a_dRnRlu9hGFGuk2Pe_S54g3ck8D45qR_I0PY_Fy_K4-cnN8NpG3vJ5neabwbIGT_Q59I8H61T6m8_ifpanlfM0iTFSVr78jpYNydEBsGVdkNcOrhvKPOUMpSg99Ealcim4hh_yu9Hd93ItLCQLzxgeVZHxQ8iSfkOZVXDnkcDWzSlXbE9fcALAGATvryY2_7lmFduaeAy4RRoxDSrfMBF1r0Ft3svARZKN1-2hDqM9J3CyPLEuizBWUThBk2wA9LtFxEabcYpYzEQwtrSMPgQc9Ag4IYceXpVZSqPyrNHC5paMB6gVG3sDSjBN863KFTWXLNOOZs69E9fz8qHIsrjgiNcjd9Pq0JsPfShsy6Pw6h9PKxqreKPQ2HweJT97Rb_7aFrOWxHWHXk_DlL50iuyRJtn3YwYfoXIlQyhoY3NpRbrwHWURSV-c_sNDkr5r2Pg5O-fZwsH6iHt9bguF3yhqnrkOosTp69gCLtkbeMnDUs4dStisRFTAr39hfkn1A5r8M7swc-BFPBsc-lwJUOASAjVr3kpo64cWMrIFV6astzQSg7lAttyqVuIoYkemCxVLEd-elH5UlxuDrYKADb6ZxQSVEHU1r1sYABgrYIFBjS5uD0x2uuH2jqU5HA7M7yX3u876nGga7U7e-nFDS-0_x1T8z1Bx0NIOym1oJ63SeVc-uT5OQKyY3cK-ZZXUb6D7Xywyx224UCP-8_lPFCs-BnGAh_KNYs_lD3IuBqzreOKFxeq1V7WRe94BugHPl_IHjufFfTHkMEIstd4THtSN6jzenxR1Ta9_0G00?></g></svg>